<mxfile host="65bd71144e">
    <diagram id="hbC4uzHOZqBioNfB1Z3J" name="Page-1">
        <mxGraphModel dx="646" dy="325" grid="1" gridSize="10" guides="1" tooltips="1" connect="1" arrows="1" fold="1" page="1" pageScale="1" pageWidth="850" pageHeight="1100" math="0" shadow="0">
            <root>
                <mxCell id="0"/>
                <mxCell id="1" parent="0"/>
                <mxCell id="4" value="&lt;div&gt;The client performs detection&lt;/div&gt;&lt;div&gt;duplicate addresses&lt;/div&gt;" style="text;html=1;align=center;verticalAlign=middle;whiteSpace=wrap;rounded=0;fillColor=#0050ef;fontColor=#ffffff;strokeColor=#001DBC;" parent="1" vertex="1">
                    <mxGeometry x="260" y="50" width="310" height="30" as="geometry"/>
                </mxCell>
                <mxCell id="7" value="" style="points=[[0.03,0.03,0],[0.5,0,0],[0.97,0.03,0],[1,0.4,0],[0.97,0.745,0],[0.5,1,0],[0.03,0.745,0],[0,0.4,0]];verticalLabelPosition=bottom;sketch=0;html=1;verticalAlign=top;aspect=fixed;align=center;pointerEvents=1;shape=mxgraph.cisco19.workstation;fillColor=#6a00ff;strokeColor=#3700CC;fontColor=#ffffff;" parent="1" vertex="1">
                    <mxGeometry x="520" y="135" width="62.5" height="50" as="geometry"/>
                </mxCell>
                <mxCell id="9" value="" style="shape=image;verticalLabelPosition=bottom;labelBackgroundColor=default;verticalAlign=top;aspect=fixed;imageAspect=0;image=data:image/svg+xml,PHN2ZyB4bWxucz0iaHR0cDovL3d3dy53My5vcmcvMjAwMC9zdmciIHZpZXdCb3g9IjAgMCAxNiAxNiIgY2xhc3M9ImJpIGJpLXJvdXRlciIgZmlsbD0iY3VycmVudENvbG9yIiBoZWlnaHQ9IjE2IiB3aWR0aD0iMTYiIHN0eWxlPSJjb2xvcjogYmx1ZSI+IDxwYXRoIGZpbGw9ImJsdWUiIGQ9Ik01LjUyNSAzLjAyNWEzLjUgMy41IDAgMCAxIDQuOTUgMCAuNS41IDAgMSAwIC43MDctLjcwNyA0LjUgNC41IDAgMCAwLTYuMzY0IDAgLjUuNSAwIDAgMCAuNzA3LjcwN1oiLz4gPHBhdGggZmlsbD0iYmx1ZSIgZD0iTTYuOTQgNC40NGExLjUgMS41IDAgMCAxIDIuMTIgMCAuNS41IDAgMCAwIC43MDgtLjcwOCAyLjUgMi41IDAgMCAwLTMuNTM2IDAgLjUuNSAwIDAgMCAuNzA3LjcwN1pNMi41IDExYS41LjUgMCAxIDEgMC0xIC41LjUgMCAwIDEgMCAxWm00LjUtLjVhLjUuNSAwIDEgMCAxIDAgLjUuNSAwIDAgMC0xIDBabTIuNS41YS41LjUgMCAxIDEgMC0xIC41LjUgMCAwIDEgMCAxWm0xLjUtLjVhLjUuNSAwIDEgMCAxIDAgLjUuNSAwIDAgMC0xIDBabTIgMGEuNS41IDAgMSAwIDEgMCAuNS41IDAgMCAwLTEgMFoiLz4gPHBhdGggZmlsbD0iYmx1ZSIgZD0iTTIuOTc0IDIuMzQyYS41LjUgMCAxIDAtLjk0OC4zMTZMMy44MDYgOEgxLjVBMS41IDEuNSAwIDAgMCAwIDkuNXYyQTEuNSAxLjUgMCAwIDAgMS41IDEzSDJhLjUuNSAwIDAgMCAuNS41aDJBLjUuNSAwIDAgMCA1IDEzaDZhLjUuNSAwIDAgMCAuNS41aDJhLjUuNSAwIDAgMCAuNS0uNWguNWExLjUgMS41IDAgMCAwIDEuNS0xLjV2LTJBMS41IDEuNSAwIDAgMCAxNC41IDhoLTIuMzA2bDEuNzgtNS4zNDJhLjUuNSAwIDEgMC0uOTQ4LS4zMTZMMTEuMTQgOEg0Ljg2TDIuOTc0IDIuMzQyWk0xNC41IDlhLjUuNSAwIDAgMSAuNS41djJhLjUuNSAwIDAgMS0uNS41aC0xM2EuNS41IDAgMCAxLS41LS41di0yYS41LjUgMCAwIDEgLjUtLjVoMTNaIi8+IDxwYXRoIGZpbGw9ImJsdWUiIGQ9Ik04LjUgNS41YS41LjUgMCAxIDEtMSAwIC41LjUgMCAwIDEgMSAwWiIvPiA8L3N2Zz4=;" parent="1" vertex="1">
                    <mxGeometry x="240" y="130" width="60" height="60" as="geometry"/>
                </mxCell>
                <mxCell id="12" value="" style="rounded=1;whiteSpace=wrap;html=1;labelBackgroundColor=default;strokeColor=#0000FF;fontFamily=Helvetica;fontSize=12;fontColor=default;fillColor=none;dashed=1;dashPattern=8 8;strokeWidth=2;" parent="1" vertex="1">
                    <mxGeometry x="170" y="110" width="162" height="330" as="geometry"/>
                </mxCell>
                <mxCell id="13" value="" style="rounded=1;whiteSpace=wrap;html=1;labelBackgroundColor=default;strokeColor=#0000FF;fontFamily=Helvetica;fontSize=12;fontColor=default;fillColor=none;dashed=1;dashPattern=8 8;strokeWidth=2;" parent="1" vertex="1">
                    <mxGeometry x="483.25" y="110" width="138.75" height="330" as="geometry"/>
                </mxCell>
                <mxCell id="14" value="" style="endArrow=none;dashed=1;html=1;fontFamily=Helvetica;fontSize=12;fontColor=default;strokeWidth=4;fillColor=#6a00ff;strokeColor=#3333FF;" parent="1" edge="1">
                    <mxGeometry width="50" height="50" relative="1" as="geometry">
                        <mxPoint x="306" y="167" as="sourcePoint"/>
                        <mxPoint x="516" y="167" as="targetPoint"/>
                    </mxGeometry>
                </mxCell>
                <mxCell id="17" value="" style="endArrow=classic;html=1;strokeWidth=1;fontFamily=Helvetica;fontSize=12;fontColor=default;strokeColor=#0000FF;" parent="1" edge="1">
                    <mxGeometry width="50" height="50" relative="1" as="geometry">
                        <mxPoint x="500" y="220" as="sourcePoint"/>
                        <mxPoint x="310" y="220" as="targetPoint"/>
                    </mxGeometry>
                </mxCell>
                <mxCell id="19" value="Client" style="text;html=1;align=center;verticalAlign=middle;whiteSpace=wrap;rounded=0;labelBackgroundColor=none;fontFamily=Lucida Console;fontSize=12;strokeWidth=1;fontStyle=1;fontColor=#3333FF;" parent="1" vertex="1">
                    <mxGeometry x="522" y="184" width="60" height="30" as="geometry"/>
                </mxCell>
                <mxCell id="21" value="&lt;font style=&quot;font-size: 14px;&quot;&gt;G&lt;/font&gt;0/0" style="text;html=1;strokeColor=none;fillColor=none;align=center;verticalAlign=middle;whiteSpace=wrap;rounded=0;labelBackgroundColor=none;fontFamily=Lucida Console;fontSize=12;fontColor=#3333FF;" parent="1" vertex="1">
                    <mxGeometry x="294" y="170" width="40" height="20" as="geometry"/>
                </mxCell>
                <mxCell id="22" value="I need an RA message from router R1" style="text;html=1;strokeColor=none;fillColor=none;align=center;verticalAlign=middle;whiteSpace=wrap;rounded=0;labelBackgroundColor=none;fontFamily=Lucida Console;fontSize=12;fontColor=#3333FF;" parent="1" vertex="1">
                    <mxGeometry x="328" y="182.75" width="160" height="30" as="geometry"/>
                </mxCell>
                <mxCell id="23" value="" style="verticalLabelPosition=bottom;align=center;labelBackgroundColor=none;verticalAlign=top;strokeWidth=2;strokeColor=#3333FF;shadow=0;dashed=0;shape=mxgraph.ios7.icons.mail;fontFamily=Lucida Console;fontSize=12;fontColor=#3333FF;fillColor=none;" parent="1" vertex="1">
                    <mxGeometry x="500" y="212.75" width="30" height="16.5" as="geometry"/>
                </mxCell>
                <mxCell id="26" value="" style="endArrow=classic;html=1;strokeWidth=1;fontFamily=Helvetica;fontSize=12;fontColor=default;strokeColor=#0000FF;" parent="1" edge="1">
                    <mxGeometry width="50" height="50" relative="1" as="geometry">
                        <mxPoint x="321" y="279" as="sourcePoint"/>
                        <mxPoint x="511" y="279" as="targetPoint"/>
                    </mxGeometry>
                </mxCell>
                <mxCell id="28" value="" style="verticalLabelPosition=bottom;align=center;labelBackgroundColor=none;verticalAlign=top;strokeWidth=2;strokeColor=#3333FF;shadow=0;dashed=0;shape=mxgraph.ios7.icons.mail;fontFamily=Lucida Console;fontSize=12;fontColor=#3333FF;fillColor=none;" parent="1" vertex="1">
                    <mxGeometry x="290" y="270" width="30" height="16.5" as="geometry"/>
                </mxCell>
                <mxCell id="29" value="&lt;b&gt;RS&lt;/b&gt;" style="text;html=1;strokeColor=none;fillColor=none;align=left;verticalAlign=middle;whiteSpace=wrap;rounded=0;labelBackgroundColor=none;fontFamily=Lucida Console;fontSize=12;fontColor=#3333FF;" parent="1" vertex="1">
                    <mxGeometry x="534" y="212" width="15" height="20" as="geometry"/>
                </mxCell>
                <mxCell id="35" value="&lt;div style=&quot;&quot;&gt;&lt;div style=&quot;&quot;&gt;Use only this.SLAAC only (by message RA)&lt;br&gt;&lt;/div&gt;&lt;/div&gt;" style="text;html=1;strokeColor=none;fillColor=none;align=center;verticalAlign=middle;whiteSpace=wrap;rounded=0;labelBackgroundColor=none;fontFamily=Lucida Console;fontSize=10;fontColor=#3333FF;" parent="1" vertex="1">
                    <mxGeometry x="328.75" y="244.5" width="154.5" height="40" as="geometry"/>
                </mxCell>
                <mxCell id="38" value="Options RA message" style="text;html=1;strokeColor=none;fillColor=none;align=left;verticalAlign=middle;whiteSpace=wrap;rounded=0;labelBackgroundColor=none;fontFamily=Lucida Console;fontSize=12;fontColor=#3333FF;" parent="1" vertex="1">
                    <mxGeometry x="193" y="230.5" width="142" height="29.5" as="geometry"/>
                </mxCell>
                <mxCell id="40" value="&lt;div style=&quot;&quot;&gt;&lt;div style=&quot;&quot;&gt;&lt;div style=&quot;&quot;&gt;SLAAC only&amp;nbsp;&lt;/div&gt;&lt;div style=&quot;&quot;&gt;(&amp;nbsp;&lt;span style=&quot;background-color: initial;&quot;&gt;default)&lt;/span&gt;&lt;/div&gt;&lt;/div&gt;&lt;/div&gt;" style="text;html=1;strokeColor=none;fillColor=none;align=center;verticalAlign=middle;whiteSpace=wrap;rounded=0;labelBackgroundColor=none;fontFamily=Lucida Console;fontSize=10;fontColor=#3333FF;" parent="1" vertex="1">
                    <mxGeometry x="208" y="263.25" width="86" height="30" as="geometry"/>
                </mxCell>
                <mxCell id="41" value="" style="verticalLabelPosition=bottom;align=center;labelBackgroundColor=none;verticalAlign=top;strokeWidth=2;strokeColor=#3333FF;shadow=0;dashed=0;shape=mxgraph.ios7.icons.mail;fontFamily=Lucida Console;fontSize=12;fontColor=#3333FF;fillColor=none;" parent="1" vertex="1">
                    <mxGeometry x="290" y="320" width="30" height="16.5" as="geometry"/>
                </mxCell>
                <mxCell id="42" value="" style="endArrow=classic;html=1;strokeWidth=1;fontFamily=Helvetica;fontSize=12;fontColor=default;strokeColor=#0000FF;" parent="1" edge="1">
                    <mxGeometry width="50" height="50" relative="1" as="geometry">
                        <mxPoint x="321" y="329" as="sourcePoint"/>
                        <mxPoint x="511" y="329" as="targetPoint"/>
                    </mxGeometry>
                </mxCell>
                <mxCell id="43" value="&lt;div style=&quot;&quot;&gt;&lt;div style=&quot;&quot;&gt;&lt;div style=&quot;&quot;&gt;&lt;div&gt;DHCP without tracking&amp;nbsp;&lt;/div&gt;&lt;div&gt;&lt;span style=&quot;background-color: initial;&quot;&gt;SLAAC&amp;nbsp;&lt;/span&gt;&lt;span style=&quot;background-color: initial;&quot;&gt;and DHCPv6&lt;/span&gt;&lt;/div&gt;&lt;/div&gt;&lt;/div&gt;&lt;/div&gt;" style="text;html=1;strokeColor=none;fillColor=none;align=center;verticalAlign=middle;whiteSpace=wrap;rounded=0;labelBackgroundColor=none;fontFamily=Lucida Console;fontSize=10;fontColor=#3333FF;" parent="1" vertex="1">
                    <mxGeometry x="180" y="336.5" width="140" height="30" as="geometry"/>
                </mxCell>
                <mxCell id="45" value="&lt;div style=&quot;&quot;&gt;&lt;div style=&quot;&quot;&gt;Use this message.RA and DHCPv6 server&lt;br&gt;&lt;/div&gt;&lt;/div&gt;" style="text;html=1;strokeColor=none;fillColor=none;align=center;verticalAlign=middle;whiteSpace=wrap;rounded=0;labelBackgroundColor=none;fontFamily=Lucida Console;fontSize=10;fontColor=#3333FF;" parent="1" vertex="1">
                    <mxGeometry x="328.75" y="296.25" width="154.5" height="30" as="geometry"/>
                </mxCell>
                <mxCell id="46" value="" style="verticalLabelPosition=bottom;align=center;labelBackgroundColor=none;verticalAlign=top;strokeWidth=2;strokeColor=#3333FF;shadow=0;dashed=0;shape=mxgraph.ios7.icons.mail;fontFamily=Lucida Console;fontSize=12;fontColor=#3333FF;fillColor=none;" parent="1" vertex="1">
                    <mxGeometry x="290" y="375" width="30" height="16.5" as="geometry"/>
                </mxCell>
                <mxCell id="47" value="" style="endArrow=classic;html=1;strokeWidth=1;fontFamily=Helvetica;fontSize=12;fontColor=default;strokeColor=#0000FF;" parent="1" edge="1">
                    <mxGeometry width="50" height="50" relative="1" as="geometry">
                        <mxPoint x="321" y="386" as="sourcePoint"/>
                        <mxPoint x="511" y="386" as="targetPoint"/>
                    </mxGeometry>
                </mxCell>
                <mxCell id="48" value="&lt;div style=&quot;&quot;&gt;&lt;div style=&quot;&quot;&gt;Use a DHCPv6 server&lt;br&gt;&lt;/div&gt;&lt;/div&gt;" style="text;html=1;strokeColor=none;fillColor=none;align=center;verticalAlign=middle;whiteSpace=wrap;rounded=0;labelBackgroundColor=none;fontFamily=Lucida Console;fontSize=10;fontColor=#3333FF;" parent="1" vertex="1">
                    <mxGeometry x="343.5" y="359.5" width="125" height="23.5" as="geometry"/>
                </mxCell>
                <mxCell id="49" value="&lt;div style=&quot;&quot;&gt;&lt;div style=&quot;&quot;&gt;&lt;div style=&quot;&quot;&gt;&lt;div&gt;DHCPv6 protocol&amp;nbsp;&lt;span style=&quot;background-color: initial;&quot;&gt;with tracking status&lt;/span&gt;&lt;/div&gt;&lt;/div&gt;&lt;/div&gt;&lt;/div&gt;" style="text;html=1;strokeColor=none;fillColor=none;align=center;verticalAlign=middle;whiteSpace=wrap;rounded=0;labelBackgroundColor=none;fontFamily=Lucida Console;fontSize=10;fontColor=#3333FF;" parent="1" vertex="1">
                    <mxGeometry x="158.75" y="395" width="170" height="30" as="geometry"/>
                </mxCell>
            </root>
        </mxGraphModel>
    </diagram>
</mxfile>